<svg id="Layer_1" data-name="Layer 1" xmlns="http://www.w3.org/2000/svg" viewBox="0 0 491.84 211.34"><defs><style>.cls-1{fill:#fff;}</style></defs><path class="cls-1" d="M117.71,130.06a1.44,1.44,0,0,0-1.47-.07l-5.17,2.76a1.43,1.43,0,0,0-.7.86l-.31,1c-.29,1-.74,2.42-1.2,3.81-.23.7-.46,1.37-.67,2s-.41,1.06-.54,1.33a17.73,17.73,0,0,1-1.62,2.62,12.22,12.22,0,0,1-.83,1,4.18,4.18,0,0,1-.3.3l-.08.07h0a1.43,1.43,0,0,0-.63,1.72L109,161.1a1.43,1.43,0,0,0,2.43.46l.55-.63a1.38,1.38,0,0,0,.32-.68l1.19-6.56,2.43-3.79a1.42,1.42,0,0,0,0-1.56l-.56-.84c.09-.32.21-.73.32-1.19s.26-1.09.36-1.65a9.68,9.68,0,0,0,.18-1.66,3.52,3.52,0,0,0,0-.64h0v0a6.69,6.69,0,0,1,.21-1.22c.21-.84.55-1.86.83-2.65l.35-1c.09-.24.15-.38.15-.38a1.18,1.18,0,0,0,.09-.37l.55-5.34A1.42,1.42,0,0,0,117.71,130.06Zm-4.42,12.27a2.92,2.92,0,0,0,0,.51h0V143a5.86,5.86,0,0,1-.13,1.15c-.13.71-.33,1.51-.49,2.13-.09.31-.16.57-.22.75s-.08.28-.08.28a1.45,1.45,0,0,0,.17,1.23l.42.61-2.08,3.24a1.56,1.56,0,0,0-.2.52l-.54,3-3-8.47.11-.11a20.16,20.16,0,0,0,2.91-4.34,21.21,21.21,0,0,0,.88-2.23c.71-2,1.5-4.62,1.84-5.75l2.27-1.21-.25,2.47c-.14.36-.46,1.2-.78,2.16-.21.64-.42,1.34-.59,2A9,9,0,0,0,113.29,142.33Z"/><path class="cls-1" d="M173.15,186.81l-.13-1.74q-2.45-30.58-2.44-48.5,0-4.35.31-13.12t.3-13.13a9,9,0,0,0,0-.93v0a5.54,5.54,0,0,0-.2-1.13,2.33,2.33,0,0,0-2.36-1.9c-1.57,0-4,.09-7.2.25q-4.19.22-6.5.25h-1.47q-2.29,0-6.31-.3c-3.14-.2-5.5-.31-7.07-.31h0a45.12,45.12,0,0,0-20.57-19.5h0c-.88-.42-1.79-.8-2.71-1.16h0a43.78,43.78,0,0,0-4.28-1.42l-.28-.09a23.51,23.51,0,0,0,2-1.74c.56-.54,1.1-1.11,1.61-1.71a26.31,26.31,0,0,0,2.88-4.31,28.92,28.92,0,0,0,3.38-13.71c0-.2,0-.4,0-.6s0-.47,0-.71h0c1,.26,2,.49,3.07.7l1,.2h0l.05,0A1.43,1.43,0,0,0,127.84,61a1.48,1.48,0,0,0-1.16-1.66h0C114,57.09,108,51.68,104.89,46.89a21.84,21.84,0,0,1-2.69-6.34,15.14,15.14,0,0,1-.33-2c-.05-.47-.05-.73-.05-.73a1.43,1.43,0,0,0-2.44-1,1.41,1.41,0,0,0-.42,1s0,.26,0,.73a18.87,18.87,0,0,1-1.62,5.76,20.89,20.89,0,0,1-2.7,4.41C91.2,53,85.17,57.38,74.09,59.37a1.25,1.25,0,0,0-.46.19A1.41,1.41,0,0,0,72.94,61a1.43,1.43,0,0,0,1.66,1.16h0c1.46-.26,2.82-.57,4.12-.91,0,.44,0,.87,0,1.31A28.15,28.15,0,0,0,85,80.6a22.66,22.66,0,0,0,3.62,3.45A44.44,44.44,0,0,0,84,85.56c-.91.36-1.82.74-2.71,1.16a45,45,0,0,0-25.86,39.41,4.78,4.78,0,0,0-3.72,3.75l-.37,1.87-1,5.21a12.6,12.6,0,0,0-4-3.19,9,9,0,0,1-4.3-4.61,15.1,15.1,0,0,1-1.18-6,15.26,15.26,0,0,1,.18-2.4,6.4,6.4,0,0,1,.41-1.53,3.23,3.23,0,0,1,.42-.68q.3-.37.75-.87a24.76,24.76,0,0,0,1.72-2.09,13.41,13.41,0,0,0,1.46-2.49c.11-.23.21-.48.31-.73a17.87,17.87,0,0,0,.65-2.09c0-.15.08-.28.12-.44.15-.67.28-1.39.38-2.17,0-.37.09-.76.13-1.16.07-.88.11-1.81.11-2.83,0-.18,0-.39,0-.58,0-.64,0-1.29-.06-2,0-.89-.1-1.75-.14-2.59,0-.67,0-1.31-.08-2,0-1-.06-2-.06-2.91A29.42,29.42,0,0,1,49,82.15a22,22,0,0,1,4-6.24,35.87,35.87,0,0,1,3.84-3.64c1.72-1.41,3-2.44,4.12-3.31.56-.45,1.06-.86,1.51-1.25A14.49,14.49,0,0,0,64.09,66a8.77,8.77,0,0,0,.71-.9,14.12,14.12,0,0,0,1.32-2.64c.16-.38.31-.79.46-1.23s.28-.77.42-1.19l.29-.87c.07-.21.14-.43.22-.65.26-.8.55-1.7.89-2.71l.26-.79.61-1.84c.67-2,1.47-4.29,2.45-7a30.83,30.83,0,0,1,17.2-18.6A35.26,35.26,0,0,1,97,25.17c1-.18,1.91-.27,2.49-.31l.66,0h.22a33.5,33.5,0,0,1,12,3A30.81,30.81,0,0,1,129,46.16c1,2.74,1.78,5.07,2.45,7,.32,1,.61,1.83.87,2.63s.55,1.66.78,2.37l.12.34c.18.55.34,1.05.5,1.52l.42,1.19c.16.44.31.85.46,1.23l.15.37a.61.61,0,0,0,.05.12,11.35,11.35,0,0,0,1.81,3,11,11,0,0,0,1.21,1.27c.56.52,1.21,1,2,1.67l.34,0v0c.39.42.75.82,1.09,1.17.77.63,1.66,1.33,2.69,2.18.5.41,1,.82,1.44,1.24q1.78-.69,10-9.7,8.85-9.78,8.86-11.52a7.42,7.42,0,0,0-1.62-3.6A73.87,73.87,0,0,0,134.37,24a80.42,80.42,0,0,0-36.86-9Q60.23,15,37,42.29,15,68.12,15,106.1,15,143.23,37.39,169,61,196.34,97.6,196.34q31.34,0,54.23-15.46A74.82,74.82,0,0,0,161,186q7.19,3.59,9,3.59Q173.4,189.56,173.15,186.81ZM53.36,136.31l1.17-5.88a2,2,0,0,1,1.9-1.55,1.7,1.7,0,0,1,.45.08,1.93,1.93,0,0,1,1.46,1.54l.11.7c-.43.41-.86.85-1.3,1.3s-.85.88-1.27,1.34l-.25.26c-.72.79-1.43,1.63-2.13,2.49l-.25.3Zm14-35a19.66,19.66,0,0,1,3.76,2.47,12.93,12.93,0,0,1,2.89,3.3,8.38,8.38,0,0,1,1.24,4.36,9.49,9.49,0,0,1-.44,2.8,18.55,18.55,0,0,0-.91,5.42A10.35,10.35,0,0,0,75,124.42,10.73,10.73,0,0,0,79.92,129a25.36,25.36,0,0,0,7.14,2.15,3.38,3.38,0,0,1,2,1,2.6,2.6,0,0,1,.53,1.71,8.06,8.06,0,0,1-.71,3A19.35,19.35,0,0,1,85.57,142a18.39,18.39,0,0,1-4.72,3.9,7.36,7.36,0,0,0-2.24,1.76,3.68,3.68,0,0,0-.86,2.29c0,.08,0,.15,0,.23a3.94,3.94,0,0,0,.42,1.51,7.3,7.3,0,0,0,2,2.22A20.22,20.22,0,0,0,84,156.2c1.23.6,2.31,1,2.82,1.23a1.91,1.91,0,0,1,1,.85c.23.32.47.79.82,1.32A6.27,6.27,0,0,0,91.26,162a13,13,0,0,0,5.59,1,23.92,23.92,0,0,1,9,1.83,20.63,20.63,0,0,1,4.06,2.24c.49.35,1,.72,1.41,1.1a42.1,42.1,0,0,1-33.69-5.25c-.51-.32-1-.66-1.49-1l-.11-.08c-.45-.32-.89-.64-1.33-1-1.13-.87-2.22-1.81-3.26-2.79-.28-.26-.56-.52-.83-.79-.83-.83-1.62-1.7-2.38-2.6.72-.81,1.43-1.66,2.08-2.46l1.59-2c.66-.86,1.09-1.43,1.09-1.44a1.39,1.39,0,0,0,.28-.8l.32-9.17a1.4,1.4,0,0,0-.24-.84L66,126.66a1.44,1.44,0,0,0-2.09-.33s-1.25,1-3,2.62a4.78,4.78,0,0,0-2.53-2.53A41.86,41.86,0,0,1,67.4,101.29Zm32.92-16h.14a42.09,42.09,0,0,1,42,41.08,3.72,3.72,0,0,0-.57.27,56.66,56.66,0,0,0-3.27-6.31c-.33-.51-.64-1-1-1.37a10.61,10.61,0,0,0-1.48-1.65,4.21,4.21,0,0,0-2.75-1.14,4,4,0,0,0-2.21.72,12.58,12.58,0,0,0-2.43,2.41c-.76.93-1.54,2-2.41,2.93h0a16.25,16.25,0,0,1-3.47,3.08,5,5,0,0,1-2.6.9,2.92,2.92,0,0,1-2-.87,8.62,8.62,0,0,1-2-3.18c-.61-1.47-1.34-3.86-2.29-6.58-1.43-4.09-3.33-8.94-6.26-12.93a19.74,19.74,0,0,0-5.29-5.1,14.44,14.44,0,0,0-7.28-2.29,17.76,17.76,0,0,1-5.59-1,6.66,6.66,0,0,1-3.65-2.91,5.85,5.85,0,0,1-.74-2.91c0-.12,0-.21,0-.31a41.33,41.33,0,0,1,6.75-2A41.91,41.91,0,0,1,100.32,85.34ZM130.83,148l-.48-.63-.09-2.48c.43.41.89.84,1.36,1.3a36,36,0,0,1,3.61,4c.1.13.22.28.3.4s0,0,0,0a1.42,1.42,0,0,0,1.33.57,1.39,1.39,0,0,0,.61-.21,1.51,1.51,0,0,0,.57-.8,1.38,1.38,0,0,0,0-.85,1,1,0,0,0-.13-.33c-.22-.33-.49-.66-.75-1-.46-.57-.95-1.15-1.5-1.75-2-2.2-4.53-4.43-5.54-5.32l-.06-1.8.84-1.28c.93,1,2.28,2.44,3.62,4,.94,1.07,1.88,2.17,2.67,3.16.34.44.65.85.92,1.23a13.8,13.8,0,0,1,.79,1.22,1.49,1.49,0,0,0,.12.14,1.4,1.4,0,0,0,1.19.59h.11l-.09.16c-.33.63-.67,1.25-1,1.86h0a43.61,43.61,0,0,1-2.89,4.34l.65.63c-.2-.19-.42-.39-.65-.63s-.65-.67-1-1.05-.65-.72-1-1.1c-.57-.65-1.14-1.34-1.66-2l-.17-.21C131.86,149.33,131.26,148.57,130.83,148Zm2.91-14.49c1.15,1.19,2.94,3.07,4.67,5.06.37.43.72.86,1.08,1.3s.56.66.82,1,.73.92,1.05,1.36l.1.13c.34.46.63.9.88,1.31-.3.78-.63,1.55-1,2.31a16.09,16.09,0,0,0-.92-1.44l-.62-.82-.38-.5c-.13-.16-.25-.32-.39-.48-2.19-2.72-5.15-5.88-6.55-7.35Zm2.59-3.94c.63.54,1.47,1.28,2.42,2.17s2,1.91,3.1,3c.41.42.81.86,1.22,1.31.24.25.47.5.7.76s.32.37.47.56c-.22,1-.47,1.93-.75,2.89l-.13-.19c-.3-.4-.63-.8-1-1.22s-.73-.9-1.12-1.36c-.74-.87-1.49-1.72-2.22-2.53-1.5-1.65-2.88-3.08-3.71-3.93Zm-54-40.2a8.52,8.52,0,0,0,3.9,6.43c2,1.31,4.79,2.2,8.77,2.37a12,12,0,0,1,7.51,3.06c3.14,2.69,5.47,7,7.19,11.2.86,2.11,1.58,4.21,2.21,6.08s1.16,3.52,1.68,4.79a11.61,11.61,0,0,0,2.71,4.2,5.8,5.8,0,0,0,4,1.61,7.82,7.82,0,0,0,4.11-1.32,19.32,19.32,0,0,0,4.1-3.61h0c1.27-1.44,2.29-2.85,3.16-3.82a7,7,0,0,1,1.13-1,1.22,1.22,0,0,1,.62-.25,1.56,1.56,0,0,1,.89.46,16.46,16.46,0,0,1,3.09,4.48l.74,1.46c.47,1,1,2,1.52,3.25l-1.33-1.18c-.89-.76-1.44-1.2-1.46-1.21a1.38,1.38,0,0,0-1.11-.29,1.42,1.42,0,0,0-1,.62l-7.39,11.25a1.42,1.42,0,0,0-.24.84l.31,9.17a1.4,1.4,0,0,0,.29.8s.43.58,1.09,1.44,1.39,1.78,2.26,2.82c.45.55.93,1.11,1.4,1.66-.76.89-1.54,1.76-2.37,2.59-.27.27-.55.53-.83.79a41.48,41.48,0,0,1-3.27,2.79c-.47.37-.94.72-1.43,1.06s-1,.68-1.49,1a39.25,39.25,0,0,1-4,2.27,41.6,41.6,0,0,1-4.75,2c-.25-.27-.54-.51-.8-.76a22,22,0,0,0-6.65-4.27,26.57,26.57,0,0,0-10.1-2,11.3,11.3,0,0,1-4.08-.57,3.46,3.46,0,0,1-1.26-.8,10.57,10.57,0,0,1-1.21-1.79,5.91,5.91,0,0,0-.93-1.18,4.73,4.73,0,0,0-1.55-1,32.26,32.26,0,0,1-4.41-2.1,10.55,10.55,0,0,1-2.14-1.62,3.06,3.06,0,0,1-.53-.7,1.32,1.32,0,0,1-.08-.19.63.63,0,0,1,.18-.73,4.24,4.24,0,0,1,1.37-1,22.61,22.61,0,0,0,7-6.42,20.25,20.25,0,0,0,2.32-4,10.72,10.72,0,0,0,.93-4.07,5.31,5.31,0,0,0-1.21-3.56,6.06,6.06,0,0,0-3.73-1.92,18.6,18.6,0,0,1-7.88-2.84,7,7,0,0,1-2.1-2.42,7.65,7.65,0,0,1-.77-3.48,15.59,15.59,0,0,1,.79-4.57h0a12.29,12.29,0,0,0,.57-3.64,11.41,11.41,0,0,0-1.73-6A18,18,0,0,0,70.85,100c-.57-.37-1.1-.67-1.56-.93q.64-.7,1.32-1.38A42.44,42.44,0,0,1,82.38,89.37ZM60.91,161.62a16.65,16.65,0,0,1-6.25-2.43,11.5,11.5,0,0,1-1.59-1.34,9.45,9.45,0,0,1-1.19-1.41c-.2-.3-.4-.62-.58-.95A11.84,11.84,0,0,1,50,150a12.19,12.19,0,0,1,1.37-5.09h0q.41-.84.9-1.68l.06-.11c.27-.46.56-.91.86-1.37.53-.8,1.11-1.58,1.71-2.36S56,138,56.53,137.4q.59-.68,1.17-1.32c.41-.45.82-.88,1.22-1.3.59-.61,1.17-1.2,1.73-1.74,1.39-1.36,2.65-2.48,3.56-3.26l.24-.21,1,1.5c-.93,1-2.54,2.62-4.23,4.51-.57.64-1.14,1.29-1.7,1.95-.38.46-.76.91-1.12,1.36s-.66.82-1,1.22a2.14,2.14,0,0,0-.13.19c-.36.48-.68.94-1,1.39A10.78,10.78,0,0,0,55,144.25a1.42,1.42,0,1,0,2.71.88,5.13,5.13,0,0,1,.35-.76c.12-.22.25-.45.41-.71.27-.44.61-.93,1-1.44l.28-.39.77-1c1.46-1.83,3.22-3.8,4.7-5.39l1.87-2,1.22,1.87c-.76.81-2,2.12-3.33,3.6-1.08,1.21-2.22,2.52-3.22,3.75l-.38.48c-.36.46-.7.9-1,1.32a16.09,16.09,0,0,0-.92,1.44.56.56,0,0,0,0,.08l0,.15A1.42,1.42,0,0,0,60,148a1.38,1.38,0,0,0,.51.16,1.29,1.29,0,0,0,.28,0,1.45,1.45,0,0,0,1-.59,1.49,1.49,0,0,0,.12-.14,10.84,10.84,0,0,1,.79-1.22c.35-.5.79-1.07,1.27-1.66,1.41-1.75,3.21-3.76,4.65-5.31l1.29-1.38.84,1.28-.07,1.8c-.58.51-1.63,1.45-2.82,2.58-.88.85-1.84,1.8-2.71,2.74-.55.6-1.05,1.18-1.5,1.75-.27.34-.53.67-.75,1a1.22,1.22,0,0,0-.14.33,1.45,1.45,0,0,0,0,.85,1.41,1.41,0,0,0,.57.8,1.28,1.28,0,0,0,.61.21,1.42,1.42,0,0,0,1.33-.57s0,0,0,0,.18-.26.29-.4a22.62,22.62,0,0,1,1.67-2c1.06-1.13,2.26-2.3,3.31-3.28l-.09,2.48c-.39.52-1.21,1.58-2.18,2.79-.47.58-1,1.2-1.49,1.81l-.33.38c-.33.38-.65.75-1,1.1l0,.05c-.32.36-.64.7-.94,1h0l0,0-.34.34-.63.56a3.42,3.42,0,0,1-.6.43h0a1.4,1.4,0,0,0-.74,1.47,1.36,1.36,0,0,0,.11.44,1.42,1.42,0,0,0,1.89.64h0a6.56,6.56,0,0,0,1.31-.93l.1-.09,0,0,.68-.65c.23.26.45.53.69.79h0a43.59,43.59,0,0,0,3.12,3.11c.36.33.72.68,1.09,1-.69.12-1.42.21-2.15.29-.44,0-.89.06-1.35.09s-1.09.08-1.66.08-1,0-1.53,0A25.44,25.44,0,0,1,60.91,161.62Zm77.62-55.16h0l-.11-.23C138.44,106.32,138.49,106.38,138.53,106.46ZM87.17,78.76a25.15,25.15,0,0,1-5.59-16.18c0-.74,0-1.45.09-2.16,8.79-2.9,13.84-7.6,16.63-12a23.53,23.53,0,0,0,2.09-4.12,23.53,23.53,0,0,0,2.09,4.12c2.79,4.39,7.84,9.09,16.63,12,.06.71.09,1.42.09,2.16a25.21,25.21,0,0,1-5.6,16.18,19.1,19.1,0,0,1-5.28,4.43,44.7,44.7,0,0,0-15.87,0A19.1,19.1,0,0,1,87.17,78.76ZM39.54,103.09c.46.08.92.15,1.38.27a18.44,18.44,0,0,1,3.67,1.38c0,.78-.07,1.51-.14,2.17,0,.33-.08.65-.13,1a14.42,14.42,0,0,1-1.62,5c-.12.21-.25.43-.37.62a16.75,16.75,0,0,1-1.7,2.12,18.89,18.89,0,0,1-2.74-.46c-5.37-1.39-9.49-5-11.08-9.12C29.92,103.37,34.64,102.21,39.54,103.09ZM61.59,57.7c.25,0,.48-.06.73-.07a12.84,12.84,0,0,1,2.42.16c-.16.51-.32,1-.47,1.41v0c-.16.47-.31.91-.46,1.3s-.35.95-.51,1.33a12.11,12.11,0,0,1-.71,1.44A8.49,8.49,0,0,1,61,65.19c-.26.24-.57.51-.92.79a10.62,10.62,0,0,1-1.12-.24,10.22,10.22,0,0,1-5.6-3.53A11,11,0,0,1,61.59,57.7ZM57.22,68.26l0,0h0ZM139.17,57.7a11,11,0,0,1,8.26,4.51A10.53,10.53,0,0,1,140.71,66c-.18-.14-.35-.29-.51-.43a9.29,9.29,0,0,1-1.86-2c-.05-.07-.1-.16-.15-.24A15.54,15.54,0,0,1,137,60.53c-.15-.39-.3-.82-.46-1.3l-.32-.94-.16-.5a12.84,12.84,0,0,1,2.42-.16C138.69,57.64,138.93,57.67,139.17,57.7ZM134,47.29c2.88-4.2,7.25-6.62,11.34-6.68,1.41,3.83.72,8.78-2.16,13a18.14,18.14,0,0,1-1.32,1.66,15.92,15.92,0,0,0-3.34-.48H138a16,16,0,0,0-2.87.28c-.56-1.69-1.23-3.71-2.07-6.13A17,17,0,0,1,134,47.29ZM55.41,40.61c4.08.06,8.45,2.48,11.33,6.68a17,17,0,0,1,1,1.62c-.84,2.42-1.51,4.44-2.07,6.13a16,16,0,0,0-2.87-.28h-.56a15.92,15.92,0,0,0-3.34.48,18.14,18.14,0,0,1-1.32-1.66C54.68,49.39,54,44.44,55.41,40.61ZM37.23,91.3a11.14,11.14,0,0,1,7.05,3.18c0,2.13.13,4.37.27,6.78,0,.12,0,.22,0,.35a20.24,20.24,0,0,0-2.93-1h0a21,21,0,0,0-4-.63A11.42,11.42,0,0,1,37.23,91.3Z"/><path class="cls-1" d="M98.53,65.85a1.06,1.06,0,0,0-.38-1.46,1.07,1.07,0,0,0-1.45.35h0l0,.05c-.23.25-1.29,1.42-4.68,1.44A7.69,7.69,0,0,1,88,65.38a3.19,3.19,0,0,1-.66-.5l-.11-.13h0a1.07,1.07,0,0,0-1.45-.35,1.06,1.06,0,0,0-.38,1.46A4.32,4.32,0,0,0,87,67.23a11.64,11.64,0,0,0,10.05,0A4.24,4.24,0,0,0,98.53,65.85Z"/><path class="cls-1" d="M103.77,67.23a11.64,11.64,0,0,0,10,0,4.32,4.32,0,0,0,1.53-1.38,1.06,1.06,0,0,0-.38-1.46,1.07,1.07,0,0,0-1.45.35h0l0,.05c-.22.25-1.28,1.42-4.67,1.44a7.69,7.69,0,0,1-3.94-.85,2.92,2.92,0,0,1-.66-.5l-.11-.13h0a1.05,1.05,0,0,0-1.44-.35,1.06,1.06,0,0,0-.38,1.46A4.13,4.13,0,0,0,103.77,67.23Z"/><polygon class="cls-1" points="74.85 114.23 74.85 114.22 74.85 114.22 74.85 114.23"/><path class="cls-1" d="M104.13,79.43a3.16,3.16,0,0,0,1.27-.78,1.06,1.06,0,0,0-1.54-1.47h0l-.14.1a7.16,7.16,0,0,1-3.32.58,8.27,8.27,0,0,1-3-.42,2.59,2.59,0,0,1-.45-.22l0,0h0a1.06,1.06,0,0,0-1.54,1.47,3.16,3.16,0,0,0,1.27.78,12.77,12.77,0,0,0,7.48,0Z"/><path class="cls-1" d="M476.84,92.63a12.87,12.87,0,0,1-.33,2q-4.31,25.56-4.3,44.09,0,1.11,2.84,50.11l.11,1.56q.1,3.24-3,3.24a88.34,88.34,0,0,0-9.28.72,89.05,89.05,0,0,1-9.23.73q-2.12,0-3.24-7.89t-2.12-7.89c-.45,0-2.45,1.46-6,4.37a65.86,65.86,0,0,1-12.25,8.19,38.62,38.62,0,0,1-17.61,4.48q-21.61,0-36.43-17.3a57.61,57.61,0,0,1-14-38.49q0-24.78,14.15-41,14.82-16.84,39-16.85A42.19,42.19,0,0,1,444.88,94.6q1.89,2.24,5.91,6.49a.93.93,0,0,0,.66.34q.68,0,1.9-7t3.11-7a68.8,68.8,0,0,1,11.25,1.68Q476.85,91.06,476.84,92.63Zm-28.4,46.55q0-13.73-8.14-23.54a27,27,0,0,0-22-10.6q-13.4,0-22.31,10.49a35.26,35.26,0,0,0-8.59,23.65A34.7,34.7,0,0,0,396,162.61,28.21,28.21,0,0,0,418.33,173q13.05,0,21.86-10.6A35.22,35.22,0,0,0,448.44,139.18Z"/><path class="cls-1" d="M299.87,92.62c0-1-3.06-2.23-9.14-3.58a70.12,70.12,0,0,0-11.25-1.68c-1.26,0-2.3,2.35-3.12,7s-1.45,7-1.88,7a.9.9,0,0,1-.67-.33q-4-4.25-5.92-6.49a42.17,42.17,0,0,0-29.74-11.86q-24.19,0-39,16.85Q185,115.78,185,140.55a57.69,57.69,0,0,0,14,38.5q14.82,17.28,36.44,17.29a38.47,38.47,0,0,0,17.6-4.49,65,65,0,0,0,12.26-8.18c3.56-2.91,5.57-4.36,6-4.36.67,0,1.39,2.63,2.13,7.87s1.83,7.9,3.24,7.9a91.13,91.13,0,0,0,9.22-.72,86.45,86.45,0,0,1,9.28-.73q3.07,0,3-3.24l-.11-1.56q-2.83-49-2.82-50.11,0-18.52,4.29-44.08A13.5,13.5,0,0,0,299.87,92.62Zm-36.66,69.76Q254.39,173,241.35,173A28.24,28.24,0,0,1,219,162.61a34.68,34.68,0,0,1-8.58-23.42A35.26,35.26,0,0,1,219,115.53Q228,105,241.35,105a27,27,0,0,1,22,10.6q8.15,9.81,8.15,23.55A35.15,35.15,0,0,1,263.21,162.38Z"/><path class="cls-1" d="M346.36,90.33q0,8.6-1.05,26t-1.05,26.08q0,8.15.33,24.39t.34,24.29c0,1.57-.67,2.34-2,2.34H321.2q-2.34,0-2.34-4.57,0-7.71.39-23.17t.4-23.28q0-8.72-1.27-26.13t-1.26-26.13c0-1.27.78-1.9,2.33-1.9a52,52,0,0,1,6.17.56,35.55,35.55,0,0,0,12.57,0,52.24,52.24,0,0,1,6.28-.56C345.73,88.21,346.36,88.92,346.36,90.33Z"/><path class="cls-1" d="M345.79,39.27c-29.72,6.22-27.5,28.73-25.86,36.3l16.56-18.2L323.14,78.14C360.13,78.16,345.79,39.27,345.79,39.27Z"/></svg>