<svg xmlns="http://www.w3.org/2000/svg" id="Layer_2" viewBox="8.79 9.79 31.08 31.46">
    <defs>
        <style>.cls-1{fill:#fff;stroke-width:2.74px;}.cls-1,.cls-2{stroke:#152f72;stroke-linejoin:round;}.cls-2{fill:none;stroke-width:1.19px;}</style>
    </defs>
    <g id="Layer_1-2">
<!--        <circle class="cls-1" cx="23.96" cy="23.96" r="22.59"/>-->
        <path class="cls-2" d="m26.43,24.74c-1.16,1.16-3.05,1.16-4.22,0"/>
        <line class="cls-2" x1="25.78" y1="20.71" x2="27.37" y2="20.71"/>
        <line class="cls-2" x1="21.27" y1="20.71" x2="22.86" y2="20.71"/>
        <path class="cls-2" d="m27.34,29.73v.38c0,1.67-1.35,3.01-3.01,3.01h0c-1.67,0-3.01-1.35-3.01-3.01v-.82"/>
        <path class="cls-2" d="m21.09,28.8v.69c0,1.18-.87,2.18-2.08,2.49-1.08.28-2.1.64-3.06,1.07-3.36,1.54-5.68,4.37-6.57,7.6"/>
        <path class="cls-2" d="m27.55,28.8v.69c0,1.18.86,2.18,2.08,2.49,1.07.28,2.1.64,3.06,1.07,3.37,1.54,5.69,4.37,6.58,7.6"/>
        <path class="cls-2" d="m31.24,17.27v5.35c0,3.82-3.09,6.92-6.91,6.92s-6.92-3.1-6.92-6.92v-5.35"/>
        <path class="cls-2" d="m26.59,34.75c0,1.25-1.02,2.27-2.27,2.27s-2.27-1.02-2.27-2.27c0-2.17,4.53-2.17,4.54,0Z"/>
        <line class="cls-2" x1="23" y1="36.69" x2="22.19" y2="40.65"/>
        <line class="cls-2" x1="26.45" y1="40.65" x2="25.64" y2="36.69"/>
        <rect class="cls-2" x="17.41" y="10.38" width="13.83" height="6.89"/>
        <line class="cls-2" x1="12.3" y1="10.38" x2="34.66" y2="10.38"/>
        <line class="cls-2" x1="13.98" y1="10.38" x2="13.98" y2="14.32"/>
        <polyline class="cls-2" points="12.81 15.65 13.98 14.47 15.16 15.65"/>
    </g>
</svg>