<?xml version="1.0" encoding="UTF-8"?><svg id="Layer_2" xmlns="http://www.w3.org/2000/svg" viewBox="0 0 40.02 40.29"><defs><style>.cls-1{fill:none;stroke:#242a75;stroke-linejoin:round;stroke-width:1.18px;}</style></defs><g id="Layer_1-2"><polygon class="cls-1" points="9.04 26.7 10.14 26.7 10.14 24.78 10.14 24.77 10.14 12.89 4.41 12.89 4.41 16.58 .59 16.58 .59 26.7 6.69 26.7 9.04 26.7"/><line class="cls-1" x1=".59" y1="16.58" x2="4.41" y2="12.89"/><polygon class="cls-1" points="21.34 26.7 22.44 26.7 22.44 24.78 22.44 24.77 22.44 12.89 16.71 12.89 16.72 16.58 12.89 16.58 12.89 26.7 18.99 26.7 21.34 26.7"/><line class="cls-1" x1="12.89" y1="16.58" x2="16.71" y2="12.89"/><polygon class="cls-1" points="33.65 26.7 34.74 26.7 34.74 24.78 34.74 24.77 34.74 12.89 29.02 12.89 29.02 16.58 25.2 16.58 25.2 26.7 31.29 26.7 33.65 26.7"/><line class="cls-1" x1="25.2" y1="16.58" x2="29.02" y2="12.89"/><path class="cls-1" d="m6.05,33.97c7.64,7.64,20.02,7.64,27.65,0,7.64-7.64,7.64-20.02,0-27.65C26.65-.73,15.56-1.27,7.89,4.69"/><polyline class="cls-1" points="5.37 .59 5.37 6.9 11.67 6.9"/></g></svg>