<?xml version="1.0" encoding="UTF-8"?><svg id="Layer_2" xmlns="http://www.w3.org/2000/svg" viewBox="0 0 21.74 16.56"><defs><style>.cls-1{fill:#6f6f6e;}.cls-2{fill:#fff82a;}</style></defs><g id="Layer_1-2"><rect class="cls-2" y="14.08" width="21.39" height="2.35"/><path class="cls-1" d="m6.08,16.56l-6.08-1.45,4.31-3.65,3.9,3.3-2.13,1.8Zm-3.78-1.96l3.43.82.78-.66-2.2-1.86-2.01,1.7Z"/><path class="cls-1" d="m14.25,12.47l-.85-.72,6.78-5.73c.23-.2.36-.46.36-.75s-.13-.55-.36-.75l-3.78-3.2c-.23-.2-.55-.31-.88-.31h0c-.33,0-.65.11-.88.31l-6.78,5.73-.85-.72L13.78.61c.46-.39,1.08-.61,1.73-.61h0c.66,0,1.27.22,1.73.61l3.78,3.2c.46.39.72.91.72,1.47,0,.56-.25,1.08-.72,1.47l-6.78,5.73Z"/><polygon class="cls-1" points="10.23 15.3 7.35 15.26 7.37 14.25 9.74 14.28 12.64 11.83 11.39 10.77 12.24 10.05 14.34 11.83 10.23 15.3"/><polygon class="cls-1" points="3.71 12.18 3.66 9.75 7.77 6.27 12.24 10.05 11.39 10.77 7.77 7.71 4.87 10.16 4.91 12.17 3.71 12.18"/></g></svg>