<?xml version="1.0" encoding="UTF-8"?><svg id="Layer_2" xmlns="http://www.w3.org/2000/svg" viewBox="0 0 54.33 62.11"><defs><style>.cls-1{fill:none;stroke:#fff;stroke-linejoin:round;stroke-width:1.81px;}</style></defs><g id="Layer_1-2"><line class="cls-1" x1="23.4" y1="36.46" x2="23.4" y2="48.75"/><line class="cls-1" x1="30.96" y1="36.46" x2="30.96" y2="48.75"/><polyline class="cls-1" points="15.78 55.03 15.78 55.03 15.78 48.83 38.57 48.83 38.57 55.03 38.57 55.03"/><rect class="cls-1" x="8.88" y="55.03" width="36.15" height="6.17"/><path class="cls-1" d="m27.17,36.46h0c-9.06,0-16.4-7.34-16.4-16.4V.9h32.81v19.15c0,9.06-7.34,16.4-16.4,16.4Z"/><polygon class="cls-1" points="27.17 9.15 29.53 14.1 34.96 14.81 30.98 18.58 31.98 23.97 27.17 21.36 22.35 23.97 23.35 18.58 19.38 14.81 24.81 14.1 27.17 9.15"/><path class="cls-1" d="m43.57,5.75c2.07-1.36,4.35-1.77,6.28-.9,3.64,1.64,4.67,7.22,2.32,12.46-2.02,4.45-5.82,7.22-9.16,6.96"/><path class="cls-1" d="m11.3,24.26c-3.34.26-7.13-2.51-9.12-6.96C-.2,12.07.84,6.49,4.48,4.85c1.92-.87,4.2-.45,6.28.9"/></g></svg>