<?xml version="1.0" encoding="UTF-8"?><svg id="Layer_2" xmlns="http://www.w3.org/2000/svg" viewBox="0 0 42.28 39.85"><defs><style>.cls-1{stroke-miterlimit:10;}.cls-1,.cls-2{fill:none;stroke:#242a75;stroke-width:.99px;}.cls-2{stroke-linejoin:round;}</style></defs><g id="Layer_1-2"><polygon class="cls-1" points="25.4 24.61 18.4 20.95 18.41 28.27 25.4 24.61"/><path class="cls-2" d="m1.93,39.35h37.85c.61,0,1.23-.65,1.44-1.41H.5c.21.76.83,1.41,1.44,1.41Z"/><path class="cls-2" d="m35.45,14.71c1.3-.43,2.06-1.08,2.15-1.49l.56-2.92-6.89,1.74c-.06.02-.12.03-.18.02-.15,0-.3-.05-.42-.14l-5.72-4.2-.57,2.92c-.19.88,2.03,3.56,5.99,4.33,1.69.33,3.43.24,5.07-.27Z"/><path class="cls-2" d="m5.28,35.53h31.16c.34,0,.62-.27.63-.61v-18.38c-.35.19-.75.35-1.18.5-1.12.37-2.3.55-3.48.54-.77,0-1.54-.07-2.3-.22-3.31-.64-5.96-2.65-6.84-4.45-.09.04-.18.06-.28.06H5.28c-.34,0-.62.27-.63.61v21.33h0c0,.34.29.62.63.61Z"/><polygon class="cls-2" points="22.46 3.17 31.25 9.59 41.79 6.92 33.01 .5 22.46 3.17"/></g></svg>