<?xml version="1.0" encoding="UTF-8"?><svg id="Layer_2" xmlns="http://www.w3.org/2000/svg" viewBox="0 0 38.97 39.77"><defs><style>.cls-1{stroke-linecap:square;}.cls-1,.cls-2{fill:none;stroke:#242a75;stroke-linejoin:round;stroke-width:1.18px;}</style></defs><g id="Layer_1-2"><path class="cls-2" d="m23.78,29.1h-8.57c-.68,0-1.28-.27-1.72-.71-.39-.39-.64-.89-.7-1.45-.17-1.47,1.08-2.72,2.55-2.84l11.8-.89c1.51-.11,2.98.5,3.96,1.65l2.88,3.39"/><path class="cls-2" d="m12.76,26.5l-7.98-5.78c-1.14-.82-2.87-.67-3.7.46-.33.45-.49.98-.49,1.51,0,.72.3,1.44.9,1.95l8.88,7.53c.82.69,1.85,1.06,2.92,1.06h12.85c.29,0,.56.11.77.3l1.72,1.6"/><polygon class="cls-2" points="31 39.18 27.65 36.39 35.03 26.91 38.38 29.7 31 39.18"/><polyline class="cls-2" points="14.12 24.48 14.12 4.33 6.49 4.33 6.49 21.8"/><line class="cls-1" x1="9.87" y1="7.64" x2="10.74" y2="7.64"/><polyline class="cls-2" points="14.12 24.48 14.12 4.33 14.12 .59 21.73 .59 21.73 7.12 21.73 23.62"/><line class="cls-1" x1="17.49" y1="3.91" x2="18.35" y2="3.91"/><polyline class="cls-2" points="21.73 23.62 21.73 7.12 29.35 7.12 29.35 23.16"/><line class="cls-1" x1="25.06" y1="10.44" x2="26.02" y2="10.44"/></g></svg>