<?xml version="1.0" encoding="UTF-8"?><svg id="Layer_2" xmlns="http://www.w3.org/2000/svg" xmlns:xlink="http://www.w3.org/1999/xlink" viewBox="0 0 41.28 37.24"><defs><style>.cls-1{fill:none;stroke-linejoin:round;stroke-width:1.18px;}.cls-1,.cls-2{stroke:#242a75;}.cls-3{mask:url(#mask);}.cls-2{fill:#fff;stroke-miterlimit:10;stroke-width:.16px;}.cls-4{filter:url(#luminosity-invert-noclip);}</style><filter id="luminosity-invert-noclip" x="0" y="0" width="40.81" height="37.24" color-interpolation-filters="sRGB" filterUnits="userSpaceOnUse"><feColorMatrix result="cm" values="-1 0 0 0 1 0 -1 0 0 1 0 0 -1 0 1 0 0 0 1 0"/><feFlood flood-color="#fff" result="bg"/><feBlend in="cm" in2="bg"/></filter><mask id="mask" x="0" y="0" width="40.81" height="37.24" maskUnits="userSpaceOnUse"><g class="cls-4"><polygon class="cls-2" points="40.69 9.82 37.05 6.17 18.16 25.07 16.47 30.4 21.8 28.71 40.69 9.82"/></g></mask></defs><g id="Layer_1-2"><g class="cls-3"><polygon class="cls-1" points="22.66 36.65 24.1 36.65 25.53 36.65 25.53 34.14 25.53 31.63 25.53 31.63 25.53 31.62 25.53 16.11 25.53 .59 18.05 .59 10.57 .59 10.57 5.41 10.58 10.23 5.58 10.23 .59 10.23 .59 23.44 .59 36.65 8.55 36.65 16.52 36.65 19.59 36.65 22.66 36.65"/><polyline class="cls-1" points=".59 10.23 5.58 5.41 10.57 .59"/><polyline class="cls-1" points="4.19 14.18 13.11 14.18 22.03 14.18"/><polyline class="cls-1" points="4.19 18.52 13.11 18.52 22.03 18.52"/><polyline class="cls-1" points="4.19 22.85 10.74 22.85 17.3 22.85"/><polyline class="cls-1" points="4.19 27.18 9.01 27.18 13.83 27.18"/><polyline class="cls-1" points="4.19 31.51 8.74 31.51 13.28 31.51"/></g><polygon class="cls-1" points="40.69 9.82 38.87 8 37.05 6.17 27.61 15.62 18.16 25.07 17.32 27.73 16.47 30.4 19.14 29.55 21.8 28.71 31.25 19.26 40.69 9.82"/><polygon class="cls-1" points="40.69 9.82 38.87 8 37.05 6.17 27.61 15.62 18.16 25.07 17.32 27.73 16.47 30.4 19.14 29.55 21.8 28.71 31.25 19.26 40.69 9.82"/><polyline class="cls-1" points="34.1 9.17 35.92 10.99 37.74 12.81"/><polyline class="cls-1" points="34.1 9.17 35.92 10.99 37.74 12.81"/><path class="cls-1" d="m18.79,24.44l1.82,1.82,1.82,1.82"/></g></svg>