<?xml version="1.0" encoding="UTF-8"?><svg id="Layer_2" xmlns="http://www.w3.org/2000/svg" viewBox="0 0 21.19 15.21"><defs><style>.cls-1{fill:#6f6f6e;}</style></defs><g id="Layer_1-2"><path class="cls-1" d="m18.51,4.58H2.68V1.52c0-.84.81-1.52,1.8-1.52h12.23c.99,0,1.8.68,1.8,1.52v3.06ZM3.88,3.57h13.43V1.52c0-.28-.27-.51-.6-.51H4.48c-.33,0-.6.23-.6.51v2.05Z"/><polygon class="cls-1" points="21.19 11.48 17.11 11.48 17.11 10.47 20 10.47 20 4.58 1.2 4.58 1.2 10.47 4.08 10.47 4.08 11.48 0 11.48 0 3.57 21.19 3.57 21.19 11.48"/><path class="cls-1" d="m17.71,15.21H3.48v-7.85h14.23v7.85Zm-13.03-1.01h11.83v-5.82H4.68v5.82Z"/><path class="cls-1" d="m14.81,12.81H6.39v-1.01h8.42v1.01Zm0-2.03H6.39v-1.01h8.42v1.01Z"/><ellipse class="cls-1" cx="18.29" cy="5.77" rx=".6" ry=".51"/></g></svg>