<?xml version="1.0" encoding="UTF-8"?><svg id="Layer_2" xmlns="http://www.w3.org/2000/svg" viewBox="0 0 21.2 18.01"><defs><style>.cls-1{fill:#6f6f6e;}</style></defs><g id="Layer_1-2"><path class="cls-1" d="m10.6,18.01c-.77,0-1.49-.31-1.95-.82H0V3.51h2v-1.75h8.07c.27-1,1.34-1.75,2.6-1.75h6.53v3.51h2v13.68h-8.65c-.46.51-1.18.82-1.95.82Zm-9.4-1.84h8.13l.17.26c.44.69,1.76.69,2.2,0l.17-.26h8.13V4.52h-.8v9.16h-6.53c-.6,0-1.11.3-1.34.74h7.9v1.02H2V4.52h-.8v11.65Zm2-1.75h6.8V2.77H3.2v11.65ZM11.2,2.26v10.78c.42-.24.93-.37,1.47-.37h5.33V1.02h-5.33c-.81,0-1.47.56-1.47,1.25Z"/></g></svg>