<?xml version="1.0" encoding="UTF-8"?><svg id="Layer_2" xmlns="http://www.w3.org/2000/svg" viewBox="0 0 20.9 17.69"><defs><style>.cls-1{fill:#6f6f6e;}</style></defs><g id="Layer_1-2"><path class="cls-1" d="m7.98,13.52c-2.13,0-4.14-.7-5.65-1.98C-.78,8.9-.78,4.61,2.33,1.98,3.84.7,5.85,0,7.98,0s4.14.7,5.64,1.98c3.11,2.64,3.11,6.92,0,9.56-1.51,1.28-3.51,1.98-5.65,1.98Zm0-12.5c-1.81,0-3.52.6-4.8,1.68-2.64,2.24-2.64,5.88,0,8.12,1.28,1.09,2.99,1.68,4.8,1.68s3.52-.6,4.8-1.68c2.65-2.24,2.65-5.88,0-8.12-1.28-1.08-2.98-1.68-4.8-1.68Z"/><path class="cls-1" d="m18.82,17.69c-.56,0-1.08-.18-1.48-.52l-6.24-5.28.61-.34c.38-.21.74-.46,1.06-.74.33-.28.62-.58.87-.9l.41-.52,6.24,5.28c.39.33.61.78.61,1.25s-.22.92-.61,1.25c-.39.33-.92.52-1.48.52Zm-5.85-5.66l5.22,4.42c.33.28.92.28,1.26,0,.17-.14.26-.33.26-.53s-.09-.39-.26-.53l-5.22-4.42c-.19.2-.38.38-.59.56-.21.18-.43.35-.66.5Z"/><rect class="cls-1" x="4.34" y="6.25" width="7.28" height="1.02"/></g></svg>